<svg xmlns="http://www.w3.org/2000/svg" version="1.1" xmlns:xlink="http://www.w3.org/1999/xlink" xmlns:svgjs="http://svgjs.dev/svgjs" width="1000" height="1000" viewBox="0 0 1000 1000"><rect width="1000" height="1000" fill="#ceb700"></rect><g transform="matrix(0.7,0,0,0.7,149.57575757575756,282.1265587044535)"><svg viewBox="0 0 396 247" data-background-color="#ceb700" preserveAspectRatio="xMidYMid meet" height="623" width="1000" xmlns="http://www.w3.org/2000/svg" xmlns:xlink="http://www.w3.org/1999/xlink"><g id="tight-bounds" transform="matrix(1,0,0,1,0.2400000000000091,-0.09999999999999432)"><svg viewBox="0 0 395.52 247.2" height="247.2" width="395.52"><g><svg></svg></g><g><svg viewBox="0 0 395.52 247.2" height="247.2" width="395.52"><g mask="url(#cd78fe48-4c6b-4648-9399-695d46a40507)"><g><path xmlns="http://www.w3.org/2000/svg" d="M296.416 121.211v0c0 40.815-11.081 72.004-33.243 93.565-22.162 21.608-54.043 32.412-95.643 32.412v0h-68.426v-247.176h75.697c38.46 0 68.333 10.642 89.618 31.927 21.331 21.331 31.997 51.088 31.997 89.272zM265.943 122.249v0.001c0-32.227-8.08-56.513-24.24-72.858-16.16-16.345-40.192-24.517-72.096-24.517v0h-41.762v197.45h34.975c34.259 0 60.022-8.426 77.29-25.278 17.222-16.852 25.833-41.785 25.833-74.797z" fill="#f5fd00" fill-rule="nonzero" stroke="none" stroke-width="1" stroke-linecap="butt" stroke-linejoin="miter" stroke-miterlimit="10" stroke-dasharray="" stroke-dashoffset="0" font-family="none" font-weight="none" font-size="none" text-anchor="none" style="mix-blend-mode: normal" data-fill-palette-color="tertiary"></path></g></g><g transform="matrix(1,0,0,1,0,41.61380549408979)"><svg viewBox="0 0 395.52 163.9723890118204" height="163.9723890118204" width="395.52"><g><svg viewBox="0 0 395.52 163.9723890118204" height="163.9723890118204" width="395.52"><g><svg viewBox="0 0 395.52 163.9723890118204" height="163.9723890118204" width="395.52"><g><svg viewBox="0 0 395.52 163.9723890118204" height="163.9723890118204" width="395.52"><g id="textblocktransform"><svg viewBox="0 0 395.52 163.9723890118204" height="163.9723890118204" width="395.52" id="textblock"><g><svg viewBox="0 0 395.52 96.76876734942114" height="96.76876734942114" width="395.52"><g transform="matrix(1,0,0,1,0,0)"><svg width="395.52" viewBox="1.9099998474121094 -40.9900016784668 225.77999877929688 56" height="96.76876734942114" data-palette-color="#f5fd00"><path d="M33.4-18.19L33.4-18.19Q33.4-9.35 28.6-4.68 23.8 0 14.79 0L14.79 0 4.91 0 4.91-35.69 15.84-35.69Q24.17-35.69 28.78-31.08 33.4-26.46 33.4-18.19ZM29-18.04L29-18.04Q29-25.02 25.5-28.56 22-32.1 15.09-32.1L15.09-32.1 9.06-32.1 9.06-3.59 14.11-3.59Q21.53-3.59 25.27-7.24 29-10.89 29-18.04ZM52.34-32.01L52.34 0 48.19 0 48.19-32.01 36.89-32.01 36.89-35.69 63.64-35.69 63.64-32.01 52.34-32.01ZM91.82-35.69L95.97-35.69 95.97-12.6Q95.97-6.49 92.28-3 88.59 0.49 82.15 0.49L82.15 0.49Q75.7 0.49 72.18-3.03 68.65-6.54 68.65-12.7L68.65-12.7 68.65-35.69 72.8-35.69 72.8-12.4Q72.8-7.93 75.24-5.54 77.68-3.15 82.42-3.15L82.42-3.15Q86.93-3.15 89.37-5.55 91.82-7.96 91.82-12.45L91.82-12.45 91.82-35.69ZM105.41 0L105.41-35.69 115.5-35.69Q122.6-35.69 125.77-33.57 128.95-31.45 128.95-26.86L128.95-26.86Q128.95-23.68 127.18-21.62 125.41-19.56 122.01-18.95L122.01-18.95 122.01-18.7Q130.14-17.31 130.14-10.16L130.14-10.16Q130.14-5.37 126.91-2.69 123.67 0 117.86 0L117.86 0 105.41 0ZM109.56-32.1L109.56-20.41 116.4-20.41Q120.79-20.41 122.72-21.79 124.65-23.17 124.65-26.44L124.65-26.44Q124.65-29.44 122.5-30.77 120.35-32.1 115.67-32.1L115.67-32.1 109.56-32.1ZM116.67-16.89L109.56-16.89 109.56-3.54 117.01-3.54Q121.33-3.54 123.52-5.21 125.7-6.88 125.7-10.45L125.7-10.45Q125.7-13.77 123.47-15.33 121.23-16.89 116.67-16.89L116.67-16.89ZM141.25-37.99L141.25 0 137.2 0 137.2-37.99 141.25-37.99ZM172.94-13.4L172.94-13.4Q172.94-6.86 169.64-3.19 166.34 0.49 160.53 0.49L160.53 0.49Q156.95 0.49 154.16-1.2 151.38-2.88 149.87-6.03 148.35-9.18 148.35-13.4L148.35-13.4Q148.35-19.95 151.62-23.6 154.89-27.25 160.71-27.25L160.71-27.25Q166.32-27.25 169.63-23.51 172.94-19.78 172.94-13.4ZM152.55-13.4L152.55-13.4Q152.55-8.28 154.6-5.59 156.65-2.91 160.63-2.91L160.63-2.91Q164.61-2.91 166.67-5.58 168.74-8.25 168.74-13.4L168.74-13.4Q168.74-18.51 166.67-21.15 164.61-23.8 160.58-23.8L160.58-23.8Q156.6-23.8 154.58-21.19 152.55-18.58 152.55-13.4ZM192.69-26.76L201.94-26.76 201.94-24.19 196.98-23.61Q197.67-22.75 198.2-21.37 198.74-20 198.74-18.26L198.74-18.26Q198.74-14.33 196.05-11.99 193.37-9.64 188.68-9.64L188.68-9.64Q187.49-9.64 186.44-9.84L186.44-9.84Q183.85-8.47 183.85-6.4L183.85-6.4Q183.85-5.3 184.75-4.77 185.65-4.25 187.85-4.25L187.85-4.25 192.59-4.25Q196.93-4.25 199.26-2.42 201.6-0.59 201.6 2.91L201.6 2.91Q201.6 7.35 198.03 9.68 194.47 12.01 187.63 12.01L187.63 12.01Q182.38 12.01 179.54 10.06 176.69 8.11 176.69 4.54L176.69 4.54Q176.69 2.1 178.26 0.32 179.82-1.46 182.65-2.1L182.65-2.1Q181.63-2.56 180.93-3.54 180.23-4.52 180.23-5.81L180.23-5.81Q180.23-7.28 181.02-8.37 181.8-9.47 183.48-10.5L183.48-10.5Q181.41-11.35 180.1-13.4 178.79-15.45 178.79-18.09L178.79-18.09Q178.79-22.49 181.43-24.87 184.07-27.25 188.9-27.25L188.9-27.25Q191-27.25 192.69-26.76L192.69-26.76ZM180.6 4.49L180.6 4.49Q180.6 6.67 182.43 7.79 184.26 8.91 187.68 8.91L187.68 8.91Q192.78 8.91 195.24 7.39 197.69 5.86 197.69 3.25L197.69 3.25Q197.69 1.07 196.35 0.23 195-0.61 191.29-0.61L191.29-0.61 186.44-0.61Q183.68-0.61 182.14 0.71 180.6 2.03 180.6 4.49ZM182.8-18.19L182.8-18.19Q182.8-15.38 184.38-13.94 185.97-12.5 188.8-12.5L188.8-12.5Q194.74-12.5 194.74-18.26L194.74-18.26Q194.74-24.29 188.73-24.29L188.73-24.29Q185.87-24.29 184.34-22.75 182.8-21.22 182.8-18.19ZM224.69-7.3L224.69-7.3Q224.69-3.56 221.91-1.54 219.12 0.49 214.09 0.49L214.09 0.49Q208.77 0.49 205.79-1.2L205.79-1.2 205.79-4.96Q207.72-3.98 209.93-3.42 212.14-2.86 214.19-2.86L214.19-2.86Q217.37-2.86 219.07-3.87 220.78-4.88 220.78-6.96L220.78-6.96Q220.78-8.52 219.43-9.63 218.07-10.74 214.14-12.26L214.14-12.26Q210.41-13.65 208.83-14.69 207.26-15.72 206.49-17.04 205.72-18.36 205.72-20.19L205.72-20.19Q205.72-23.46 208.38-25.35 211.04-27.25 215.68-27.25L215.68-27.25Q220-27.25 224.13-25.49L224.13-25.49 222.69-22.19Q218.66-23.85 215.39-23.85L215.39-23.85Q212.51-23.85 211.04-22.95 209.58-22.05 209.58-20.46L209.58-20.46Q209.58-19.38 210.13-18.63 210.68-17.87 211.9-17.19 213.12-16.5 216.58-15.21L216.58-15.21Q221.34-13.48 223.02-11.72 224.69-9.96 224.69-7.3Z" opacity="1" transform="matrix(1,0,0,1,0,0)" fill="#f5fd00" class="undefined-text-0" data-fill-palette-color="primary" id="text-0"></path></svg></g></svg></g><g transform="matrix(1,0,0,1,2.5,109.60593608278198)"><svg viewBox="0 0 390.52 54.366452929038424" height="54.366452929038424" width="390.52"><g transform="matrix(1,0,0,1,0,0)"><svg width="390.52" viewBox="0.40000009536743164 -39.70000076293945 381.58001708984375 53.900001525878906" height="54.366452929038424" data-palette-color="#fbeaab"><path d="M14.9-35.5Q15.65-34.25 15.65-31.65 15.65-29.05 13.53-19.65 11.4-10.25 11.4-7.73 11.4-5.2 13.25-5.2L13.25-5.2Q16.45-5.2 20.45-7.95L20.45-7.95Q20.75-9.75 21.9-15.2L21.9-15.2Q24.6-27.8 24.7-32.55L24.7-32.55Q24.7-33.4 24.6-33.95L24.6-33.95Q28.6-35.5 32.65-35.5L32.65-35.5Q32.8-35.2 32.8-34L32.8-34Q32.8-31.25 30.38-19.85 27.95-8.45 27.95-5.35L27.95-5.35Q27.95-4 28.4-4 28.85-4 31.45-5.3L31.45-5.3 32.35-3.45Q27.9 0.6 24.45 0.6L24.45 0.6Q22.55 0.6 21.3-0.6 20.05-1.8 20-4L20-4Q13.25 0.6 8.8 0.6L8.8 0.6Q6.35 0.6 4.88-0.98 3.4-2.55 3.4-5.3 3.4-8.05 5.45-16.82 7.5-25.6 7.5-29.45L7.5-29.45Q7.5-30.25 7-31.38 6.5-32.5 6-33.2L6-33.2 5.5-33.9 5.6-34.65Q8.35-35.5 14.9-35.5L14.9-35.5ZM42.17 0.15L42.17 0.15 41.22 0.15Q41.22-2.2 42.64-8.85 44.07-15.5 44.07-16.4L44.07-16.4Q44.07-18.05 42.67-19.9L42.67-19.9 42.22-20.5 42.27-21.15Q44.97-21.9 50.92-21.9L50.92-21.9Q51.57-21.05 51.62-18.8L51.62-18.8Q55.97-22.15 58.97-22.15L58.97-22.15Q60.77-22.15 61.84-20.9 62.92-19.65 62.92-17.78 62.92-15.9 61.77-11.3 60.62-6.7 60.62-5.13 60.62-3.55 61.02-3.55L61.02-3.55Q61.32-3.55 63.12-4.5L63.12-4.5 63.72-4.8 64.62-3.05Q64.17-2.65 63.42-2.05 62.67-1.45 60.64-0.43 58.62 0.6 57.02 0.6L57.02 0.6Q53.37 0.6 53.37-3.55L53.37-3.55Q53.37-5.3 54.49-10 55.62-14.7 55.62-16.05 55.62-17.4 54.77-17.4L54.77-17.4Q53.32-17.4 51.22-16.15L51.22-16.15Q51.07-15.3 50.22-11.65L50.22-11.65Q48.47-3.8 48.47-0.55L48.47-0.55Q46.72 0.15 42.17 0.15ZM82.49-19.05Q82.49-16.95 81.14-11.83 79.79-6.7 79.79-5.13 79.79-3.55 80.24-3.55L80.24-3.55Q80.54-3.55 82.54-4.5L82.54-4.5 83.14-4.8 83.99-3.05Q83.54-2.65 82.79-2.05 82.04-1.45 79.99-0.43 77.94 0.6 76.19 0.6 74.44 0.6 73.44-0.48 72.44-1.55 72.44-3.38 72.44-5.2 73.69-9.88 74.94-14.55 74.94-15.95L74.94-15.95Q74.94-18.05 73.64-19.9L73.64-19.9 73.19-20.5 73.24-21.15Q75.89-21.9 81.84-21.9L81.84-21.9Q82.49-21.15 82.49-19.05ZM76.79-27.38Q75.79-28.35 75.79-30 75.79-31.65 77.16-32.9 78.54-34.15 80.34-34.15 82.14-34.15 83.14-33.15 84.14-32.15 84.14-30.53 84.14-28.9 82.71-27.65 81.29-26.4 79.54-26.4 77.79-26.4 76.79-27.38ZM96.53-22.15Q98.71-22.15 99.78-21.25 100.86-20.35 100.86-17.55L100.86-17.55Q100.86-16.05 99.96-11.43 99.06-6.8 99.06-5.8L99.06-5.8Q99.06-3.8 99.86-3.8L99.86-3.8Q101.76-3.8 104.03-6.63 106.31-9.45 106.41-11.35L106.41-11.35 103.01-15.15Q103.21-17.3 104.06-19.05 104.91-20.8 105.66-21.5L105.66-21.5 106.36-22.15Q108.51-22.15 109.61-21 110.71-19.85 110.71-18.3L110.71-18.3Q110.71-14.35 108.76-9.95 106.81-5.55 103.56-2.48 100.31 0.6 96.96 0.6L96.96 0.6Q94.86 0.6 93.73-0.7 92.61-2 92.61-4.13 92.61-6.25 92.93-9.85 93.26-13.45 93.26-17L93.26-17Q93.26-17.8 92.68-18.9 92.11-20 91.51-20.65L91.51-20.65 91.66-21.25Q94.36-22.15 96.53-22.15ZM117.08-8.65L117.08-8.65Q117.08-14.9 120.85-18.53 124.63-22.15 129.43-22.15L129.43-22.15Q132.38-22.15 134.28-20.7 136.18-19.25 136.18-16.82 136.18-14.4 134.95-12.75 133.73-11.1 131.98-10.2L131.98-10.2Q128.43-8.45 125.48-8L125.48-8 124.28-7.85Q124.63-3.15 128.13-3.15L128.13-3.15Q129.33-3.15 130.68-3.75 132.03-4.35 132.78-4.95L132.78-4.95 133.53-5.55 134.73-3.95Q134.33-3.4 133.13-2.5 131.93-1.6 130.88-1L130.88-1Q127.98 0.6 124.53 0.6 121.08 0.6 119.08-1.85 117.08-4.3 117.08-8.65ZM124.23-10.3Q126.78-10.75 128.28-12.45 129.78-14.15 129.78-16.85 129.78-19.55 128.18-19.55L128.18-19.55Q126.28-19.55 125.25-16.32 124.23-13.1 124.23-10.3L124.23-10.3ZM144.15 0.15L144.15 0.15 143.8 0.15Q143.7-0.25 143.7-1.68 143.7-3.1 145.05-9.35 146.4-15.6 146.4-16.5L146.4-16.5Q146.4-18.05 145-19.9L145-19.9 144.55-20.5 144.6-21.15Q147.3-21.9 153.25-21.9L153.25-21.9Q153.85-20.6 153.85-18.25L153.85-18.25Q154.4-19.15 156.15-20.65 157.9-22.15 159.75-22.15L159.75-22.15Q162.45-22.15 162.45-17.45L162.45-17.45Q162.2-17.15 161.77-16.68 161.35-16.2 160.07-15.35 158.8-14.5 157.6-14.3L157.6-14.3Q157.55-14.3 156.75-15.65 155.95-17 155.55-17L155.55-17Q154.3-16.55 153.35-15.5L153.35-15.5Q151.05-5.15 151.05-2.1L151.05-2.1Q151.05-1 151.1-0.55L151.1-0.55Q149.35 0.15 144.15 0.15ZM183.47-6.55L183.47-6.55Q183.47-3.4 180.69-1.4 177.92 0.6 174.37 0.6 170.82 0.6 168.74-0.9 166.67-2.4 166.67-3.55L166.67-3.55Q166.67-4.25 168.42-5.83 170.17-7.4 171.37-7.75L171.37-7.75Q173.87-5.9 175.47-1.9L175.47-1.9Q177.32-2.05 177.32-3.65L177.32-3.65Q177.32-5.95 173.27-10.18 169.22-14.4 169.22-16.9 169.22-19.4 171.47-20.78 173.72-22.15 176.89-22.15 180.07-22.15 181.67-21.03 183.27-19.9 183.27-17.98 183.27-16.05 180.22-12.65L180.22-12.65Q180.57-12.3 181.12-11.73 181.67-11.15 182.57-9.55 183.47-7.95 183.47-6.55ZM178.67-14.4Q180.77-16.2 180.77-17.95 180.77-19.7 178.37-19.7L178.37-19.7Q177.22-19.7 176.47-19.23 175.72-18.75 175.72-18.15L175.72-18.15Q175.72-17.05 177.92-15.05L177.92-15.05 178.67-14.4ZM202.04-19.05Q202.04-16.95 200.69-11.83 199.34-6.7 199.34-5.13 199.34-3.55 199.79-3.55L199.79-3.55Q200.09-3.55 202.09-4.5L202.09-4.5 202.69-4.8 203.54-3.05Q203.09-2.65 202.34-2.05 201.59-1.45 199.54-0.43 197.49 0.6 195.74 0.6 193.99 0.6 192.99-0.48 191.99-1.55 191.99-3.38 191.99-5.2 193.24-9.88 194.49-14.55 194.49-15.95L194.49-15.95Q194.49-18.05 193.19-19.9L193.19-19.9 192.74-20.5 192.79-21.15Q195.44-21.9 201.39-21.9L201.39-21.9Q202.04-21.15 202.04-19.05ZM196.34-27.38Q195.34-28.35 195.34-30 195.34-31.65 196.71-32.9 198.09-34.15 199.89-34.15 201.69-34.15 202.69-33.15 203.69-32.15 203.69-30.53 203.69-28.9 202.26-27.65 200.84-26.4 199.09-26.4 197.34-26.4 196.34-27.38ZM222.01-21.55L226.86-21.55Q226.76-20.3 226.01-18.65L226.01-18.65Q224.11-18.85 222.41-18.85L222.41-18.85 221.51-18.85Q219.21-7.7 219.21-4.95L219.21-4.95Q219.21-3.5 219.83-3.5 220.46-3.5 223.16-4.75L223.16-4.75 224.06-3.1Q219.61 0.6 215.81 0.6L215.81 0.6Q214.06 0.6 212.93-0.5 211.81-1.6 211.81-3.43 211.81-5.25 212.23-7.55 212.66-9.85 213.41-13.18 214.16-16.5 214.51-18.55L214.51-18.55Q212.66-18.4 211.76-18.25L211.76-18.25Q211.66-18.85 211.66-19.88 211.66-20.9 211.81-21.55L211.81-21.55 214.96-21.55Q215.36-24.25 215.36-26.65L215.36-26.65 215.31-28.2 215.31-28.35Q219.21-29.7 222.66-29.7L222.66-29.7Q222.86-28.7 222.86-27.2 222.86-25.7 222.01-21.55L222.01-21.55ZM238.7 5.4Q237.03 6.4 237.03 7.35 237.03 8.3 238.1 8.3 239.18 8.3 240.53 7.28 241.88 6.25 242.78 3.95L242.78 3.95Q240.38 4.4 238.7 5.4ZM236.28 0.2L236.28 0.2Q232.08 0.2 232.08-4.4L232.08-4.4Q232.08-5.5 233.08-10.75 234.08-16 234.08-19.5L234.08-19.5Q234.08-20.25 233.88-20.9L233.88-20.9Q236.58-21.95 241.28-21.95L241.28-21.95Q241.53-21.25 241.53-19.55 241.53-17.85 240.43-12.5 239.33-7.15 239.33-5.6 239.33-4.05 240.63-4.05L240.63-4.05Q242.18-4.05 244.38-5.6L244.38-5.6Q244.63-8.55 246.38-21.15L246.38-21.15Q248.13-21.85 252.68-21.85L252.68-21.85 253.63-21.85Q252.68-18.1 251.78-11.05 250.88-4 250.33-1.25L250.33-1.25Q249.28 4.25 246.45 7.73 243.63 11.2 239.08 11.2L239.08 11.2Q237.28 11.2 235.8 10.25 234.33 9.3 234.33 7.8L234.33 7.8Q234.33 5.8 236.78 4.15 239.23 2.5 243.38 1.6L243.38 1.6Q243.83-0.6 244.08-2.65L244.08-2.65Q240.03 0.2 236.28 0.2ZM291.57 0.6L291.57 0.6Q288.87 0.6 284.72-0.4L284.72-0.4Q282.12 0.3 279.87 0.3 277.62 0.3 277.27 0.15L277.27 0.15Q277.62-2.85 280.24-14.63 282.87-26.4 282.87-29.4L282.87-29.4Q282.87-30 282.22-31 281.57-32 280.92-32.7L280.92-32.7 280.27-33.4 280.42-34.15Q286.97-35.5 294.52-35.5L294.52-35.5Q298.67-35.5 301.34-33.52 304.02-31.55 304.02-28L304.02-28Q304.02-21.15 295.67-18.5L295.67-18.5Q299.02-18.1 301.29-15.98 303.57-13.85 303.57-10L303.57-10Q303.57-5.3 300.17-2.35 296.77 0.6 291.57 0.6ZM290.67-17.15L290.67-17.15Q289.27-17.15 288.17-16.9L288.17-16.9Q286.02-7.4 285.42-3.65L285.42-3.65Q286.67-2.8 289.34-2.8 292.02-2.8 293.92-4.93 295.82-7.05 295.82-11.05L295.82-11.05Q295.82-17.15 290.67-17.15ZM293.47-32.4L293.47-32.4Q291.57-32.4 291.22-32.05L291.22-32.05Q290.52-27.55 288.92-20.25L288.92-20.25Q290.92-20.25 291.72-20.5 292.52-20.75 293.14-21.15 293.77-21.55 294.57-22.4L294.57-22.4Q296.32-24.25 296.32-28.33 296.32-32.4 293.47-32.4ZM315.91 0.6Q314.19 0.6 313.06-0.55 311.94-1.7 311.94-3.78 311.94-5.85 314.41-17.03 316.89-28.2 316.89-33.15L316.89-33.15 316.59-35.35Q320.49-36.7 323.89-36.7L323.89-36.7Q324.39-36 324.39-34.25L324.39-34.25Q324.39-30.25 321.86-18.78 319.34-7.3 319.34-5.43 319.34-3.55 319.79-3.55L319.79-3.55 323.29-4.8 324.19-3.05Q322.49-1.7 320.06-0.55 317.64 0.6 315.91 0.6ZM338.26 0.6L338.26 0.6Q334.81 0.6 332.86-1.83 330.91-4.25 330.91-8.6L330.91-8.6Q330.91-14.15 333.88-18.15 336.86-22.15 342.11-22.15L342.11-22.15 343.91-22.05Q344.76-22.5 345.81-22.5L345.81-22.5Q349.76-22.5 349.76-15.05L349.76-15.05Q351.81-15.15 353.91-15.6L353.91-15.6 354.71-15.8 355.01-13.85Q353.36-13.15 350.56-12.6L350.56-12.6 349.56-12.4Q348.61-7.15 345.71-3.28 342.81 0.6 338.26 0.6ZM340.96-3.7L340.96-3.7Q343.06-3.7 344.73-6.4 346.41-9.1 347.06-12.1L347.06-12.1Q341.71-12.1 341.71-16.1L341.71-16.1Q341.71-17.7 342.36-19.1L342.36-19.1 342.61-19.6Q342.41-19.7 342.11-19.7 341.81-19.7 341.66-19.6L341.66-19.6Q340.41-18.8 339.31-15.85 338.21-12.9 338.21-9.1L338.21-9.1Q338.21-3.7 340.96-3.7ZM363.95 5.4Q362.28 6.4 362.28 7.35 362.28 8.3 363.35 8.3 364.43 8.3 365.78 7.28 367.13 6.25 368.03 3.95L368.03 3.95Q365.63 4.4 363.95 5.4ZM377.73-21.85L378.78-21.8Q378.98-21.6 378.98-20.93 378.98-20.25 378.88-19.48 378.78-18.7 378.53-16 378.28-13.3 378.03-11.3L378.03-11.3Q375.48 11.2 364.33 11.2L364.33 11.2Q362.53 11.2 361.05 10.25 359.58 9.3 359.58 7.8L359.58 7.8Q359.58 5.8 362.03 4.15 364.48 2.5 368.63 1.6L368.63 1.6Q368.63 1.55 368.93 0.2 369.23-1.15 369.33-2L369.33-2Q366.33 0.2 363.7 0.2 361.08 0.2 359.4-1.85 357.73-3.9 357.73-8.4L357.73-8.4Q357.73-14.3 360.38-18.23 363.03-22.15 367.38-22.15L367.38-22.15Q369.83-22.15 372.23-20.95L372.23-20.95Q374.78-21.85 377.73-21.85L377.73-21.85ZM369.63-19.2L369.63-19.2Q367.48-19.2 366.23-15.73 364.98-12.25 364.98-8.03 364.98-3.8 366.88-3.8L366.88-3.8Q368.13-3.8 369.83-4.75L369.83-4.75Q371.23-13.15 371.83-18.6L371.83-18.6Q370.43-19.2 369.63-19.2Z" opacity="1" transform="matrix(1,0,0,1,0,0)" fill="#fbeaab" class="undefined-text-1" data-fill-palette-color="secondary" id="text-1"></path></svg></g></svg></g></svg></g></svg></g><g></g></svg></g></svg></g></svg></g></svg></g><defs><mask id="cd78fe48-4c6b-4648-9399-695d46a40507"><rect width="395.52" height="247.2" fill="white"></rect><g transform="matrix(1,0,0,1,0,41.61380549408979)" id="clone"><svg viewBox="0 0 395.52 163.9723890118204" height="163.9723890118204" width="395.52"><g><svg viewBox="0 0 395.52 163.9723890118204" height="163.9723890118204" width="395.52"><g><svg viewBox="0 0 395.52 163.9723890118204" height="163.9723890118204" width="395.52"><g><svg viewBox="0 0 395.52 163.9723890118204" height="163.9723890118204" width="395.52"><g id="SvgjsG1128"><svg viewBox="0 0 395.52 163.9723890118204" height="163.9723890118204" width="395.52" id="SvgjsSvg1127"><g><svg viewBox="0 0 395.52 96.76876734942114" height="96.76876734942114" width="395.52"><g transform="matrix(1,0,0,1,0,0)"><svg width="395.52" viewBox="1.9099998474121094 -40.9900016784668 225.77999877929688 56" height="96.76876734942114" data-palette-color="#f5fd00"><path d="M33.4-18.19L33.4-18.19Q33.4-9.35 28.6-4.68 23.8 0 14.79 0L14.79 0 4.91 0 4.91-35.69 15.84-35.69Q24.17-35.69 28.78-31.08 33.4-26.46 33.4-18.19ZM29-18.04L29-18.04Q29-25.02 25.5-28.56 22-32.1 15.09-32.1L15.09-32.1 9.06-32.1 9.06-3.59 14.11-3.59Q21.53-3.59 25.27-7.24 29-10.89 29-18.04ZM52.34-32.01L52.34 0 48.19 0 48.19-32.01 36.89-32.01 36.89-35.69 63.64-35.69 63.64-32.01 52.34-32.01ZM91.82-35.69L95.97-35.69 95.97-12.6Q95.97-6.49 92.28-3 88.59 0.49 82.15 0.49L82.15 0.49Q75.7 0.49 72.18-3.03 68.65-6.54 68.65-12.7L68.65-12.7 68.65-35.69 72.8-35.69 72.8-12.4Q72.8-7.93 75.24-5.54 77.68-3.15 82.42-3.15L82.42-3.15Q86.93-3.15 89.37-5.55 91.82-7.96 91.82-12.45L91.82-12.45 91.82-35.69ZM105.41 0L105.41-35.69 115.5-35.69Q122.6-35.69 125.77-33.57 128.95-31.45 128.95-26.86L128.95-26.86Q128.95-23.68 127.18-21.62 125.41-19.56 122.01-18.95L122.01-18.95 122.01-18.7Q130.14-17.31 130.14-10.16L130.14-10.16Q130.14-5.37 126.91-2.69 123.67 0 117.86 0L117.86 0 105.41 0ZM109.56-32.1L109.56-20.41 116.4-20.41Q120.79-20.41 122.72-21.79 124.65-23.17 124.65-26.44L124.65-26.44Q124.65-29.44 122.5-30.77 120.35-32.1 115.67-32.1L115.67-32.1 109.56-32.1ZM116.67-16.89L109.56-16.89 109.56-3.54 117.01-3.54Q121.33-3.54 123.52-5.21 125.7-6.88 125.7-10.45L125.7-10.45Q125.7-13.77 123.47-15.33 121.23-16.89 116.67-16.89L116.67-16.89ZM141.25-37.99L141.25 0 137.2 0 137.2-37.99 141.25-37.99ZM172.94-13.4L172.94-13.4Q172.94-6.86 169.64-3.19 166.34 0.49 160.53 0.49L160.53 0.49Q156.95 0.49 154.16-1.2 151.38-2.88 149.87-6.03 148.35-9.18 148.35-13.4L148.35-13.4Q148.35-19.95 151.62-23.6 154.89-27.25 160.71-27.25L160.71-27.25Q166.32-27.25 169.63-23.51 172.94-19.78 172.94-13.4ZM152.55-13.4L152.55-13.4Q152.55-8.28 154.6-5.59 156.65-2.91 160.63-2.91L160.63-2.91Q164.61-2.91 166.67-5.58 168.74-8.25 168.74-13.4L168.74-13.4Q168.74-18.51 166.67-21.15 164.61-23.8 160.58-23.8L160.58-23.8Q156.6-23.8 154.58-21.19 152.55-18.58 152.55-13.4ZM192.69-26.76L201.94-26.76 201.94-24.19 196.98-23.61Q197.67-22.75 198.2-21.37 198.74-20 198.74-18.26L198.74-18.26Q198.74-14.33 196.05-11.99 193.37-9.64 188.68-9.64L188.68-9.64Q187.49-9.64 186.44-9.84L186.44-9.84Q183.85-8.47 183.85-6.4L183.85-6.4Q183.85-5.3 184.75-4.77 185.65-4.25 187.85-4.25L187.85-4.25 192.59-4.25Q196.93-4.25 199.26-2.42 201.6-0.59 201.6 2.91L201.6 2.91Q201.6 7.35 198.03 9.68 194.47 12.01 187.63 12.01L187.63 12.01Q182.38 12.01 179.54 10.06 176.69 8.11 176.69 4.54L176.69 4.54Q176.69 2.1 178.26 0.32 179.82-1.46 182.65-2.1L182.65-2.1Q181.63-2.56 180.93-3.54 180.23-4.52 180.23-5.81L180.23-5.81Q180.23-7.28 181.02-8.37 181.8-9.47 183.48-10.5L183.48-10.5Q181.41-11.35 180.1-13.4 178.79-15.45 178.79-18.09L178.79-18.09Q178.79-22.49 181.43-24.87 184.07-27.25 188.9-27.25L188.9-27.25Q191-27.25 192.69-26.76L192.69-26.76ZM180.6 4.49L180.6 4.49Q180.6 6.67 182.43 7.79 184.26 8.91 187.68 8.91L187.68 8.91Q192.78 8.91 195.24 7.39 197.69 5.86 197.69 3.25L197.69 3.25Q197.69 1.07 196.35 0.23 195-0.61 191.29-0.61L191.29-0.61 186.44-0.61Q183.68-0.61 182.14 0.71 180.6 2.03 180.6 4.49ZM182.8-18.19L182.8-18.19Q182.8-15.38 184.38-13.94 185.97-12.5 188.8-12.5L188.8-12.5Q194.74-12.5 194.74-18.26L194.74-18.26Q194.74-24.29 188.73-24.29L188.73-24.29Q185.87-24.29 184.34-22.75 182.8-21.22 182.8-18.19ZM224.69-7.3L224.69-7.3Q224.69-3.56 221.91-1.54 219.12 0.49 214.09 0.49L214.09 0.49Q208.77 0.49 205.79-1.2L205.79-1.2 205.79-4.96Q207.72-3.98 209.93-3.42 212.14-2.86 214.19-2.86L214.19-2.86Q217.37-2.86 219.07-3.87 220.78-4.88 220.78-6.96L220.78-6.96Q220.78-8.52 219.43-9.63 218.07-10.74 214.14-12.26L214.14-12.26Q210.41-13.65 208.83-14.69 207.26-15.72 206.49-17.04 205.72-18.36 205.72-20.19L205.72-20.19Q205.72-23.46 208.38-25.35 211.04-27.25 215.68-27.25L215.68-27.25Q220-27.25 224.13-25.49L224.13-25.49 222.69-22.19Q218.66-23.85 215.39-23.85L215.39-23.85Q212.51-23.85 211.04-22.95 209.58-22.05 209.58-20.46L209.58-20.46Q209.58-19.38 210.13-18.63 210.68-17.87 211.9-17.19 213.12-16.5 216.58-15.21L216.58-15.21Q221.34-13.48 223.02-11.72 224.69-9.96 224.69-7.3Z" opacity="1" transform="matrix(1,0,0,1,0,0)" fill="#f5fd00" class="undefined-text-0" data-fill-palette-color="primary" id="SvgjsPath1126" stroke-width="5" stroke="black" stroke-linejoin="round"></path></svg></g></svg></g><g transform="matrix(1,0,0,1,2.5,109.60593608278198)"><svg viewBox="0 0 390.52 54.366452929038424" height="54.366452929038424" width="390.52"><g transform="matrix(1,0,0,1,0,0)"><svg width="390.52" viewBox="0.40000009536743164 -39.70000076293945 381.58001708984375 53.900001525878906" height="54.366452929038424" data-palette-color="#fbeaab"><path d="M14.9-35.5Q15.65-34.25 15.65-31.65 15.65-29.05 13.53-19.65 11.4-10.25 11.4-7.73 11.4-5.2 13.25-5.2L13.25-5.2Q16.45-5.2 20.45-7.95L20.45-7.95Q20.75-9.75 21.9-15.2L21.9-15.2Q24.6-27.8 24.7-32.55L24.7-32.55Q24.7-33.4 24.6-33.95L24.6-33.95Q28.6-35.5 32.65-35.5L32.65-35.5Q32.8-35.2 32.8-34L32.8-34Q32.8-31.25 30.38-19.85 27.95-8.45 27.95-5.35L27.95-5.35Q27.95-4 28.4-4 28.85-4 31.45-5.3L31.45-5.3 32.35-3.45Q27.9 0.6 24.45 0.6L24.45 0.6Q22.55 0.6 21.3-0.6 20.05-1.8 20-4L20-4Q13.25 0.6 8.8 0.6L8.8 0.6Q6.35 0.6 4.88-0.98 3.4-2.55 3.4-5.3 3.4-8.05 5.45-16.82 7.5-25.6 7.5-29.45L7.5-29.45Q7.5-30.25 7-31.38 6.5-32.5 6-33.2L6-33.2 5.5-33.9 5.6-34.65Q8.35-35.5 14.9-35.5L14.9-35.5ZM42.17 0.15L42.17 0.15 41.22 0.15Q41.22-2.2 42.64-8.85 44.07-15.5 44.07-16.4L44.07-16.4Q44.07-18.05 42.67-19.9L42.67-19.9 42.22-20.5 42.27-21.15Q44.97-21.9 50.92-21.9L50.92-21.9Q51.57-21.05 51.62-18.8L51.62-18.8Q55.97-22.15 58.97-22.15L58.97-22.15Q60.77-22.15 61.84-20.9 62.92-19.65 62.92-17.78 62.92-15.9 61.77-11.3 60.62-6.7 60.62-5.13 60.62-3.55 61.02-3.55L61.02-3.55Q61.32-3.55 63.12-4.5L63.12-4.5 63.72-4.8 64.62-3.05Q64.17-2.65 63.42-2.05 62.67-1.45 60.64-0.43 58.62 0.6 57.02 0.6L57.02 0.6Q53.37 0.6 53.37-3.55L53.37-3.55Q53.37-5.3 54.49-10 55.62-14.7 55.62-16.05 55.62-17.4 54.77-17.4L54.77-17.4Q53.32-17.4 51.22-16.15L51.22-16.15Q51.07-15.3 50.22-11.65L50.22-11.65Q48.47-3.8 48.47-0.55L48.47-0.55Q46.72 0.15 42.17 0.15ZM82.49-19.05Q82.49-16.95 81.14-11.83 79.79-6.7 79.79-5.13 79.79-3.55 80.24-3.55L80.24-3.55Q80.54-3.55 82.54-4.5L82.54-4.5 83.14-4.8 83.99-3.05Q83.54-2.65 82.79-2.05 82.04-1.45 79.99-0.43 77.94 0.6 76.19 0.6 74.44 0.6 73.44-0.48 72.44-1.55 72.44-3.38 72.44-5.2 73.69-9.88 74.94-14.55 74.94-15.95L74.94-15.95Q74.94-18.05 73.64-19.9L73.64-19.9 73.19-20.5 73.24-21.15Q75.89-21.9 81.84-21.9L81.84-21.9Q82.49-21.15 82.49-19.05ZM76.79-27.38Q75.79-28.35 75.79-30 75.79-31.65 77.16-32.9 78.54-34.15 80.34-34.15 82.14-34.15 83.14-33.15 84.14-32.15 84.14-30.53 84.14-28.9 82.71-27.65 81.29-26.4 79.54-26.4 77.79-26.4 76.79-27.38ZM96.53-22.15Q98.71-22.15 99.78-21.25 100.86-20.35 100.86-17.55L100.86-17.55Q100.86-16.05 99.96-11.43 99.06-6.8 99.06-5.8L99.06-5.8Q99.06-3.8 99.86-3.8L99.86-3.8Q101.76-3.8 104.03-6.63 106.31-9.45 106.41-11.35L106.41-11.35 103.01-15.15Q103.21-17.3 104.06-19.05 104.91-20.8 105.66-21.5L105.66-21.5 106.36-22.15Q108.51-22.15 109.61-21 110.71-19.85 110.71-18.3L110.71-18.3Q110.71-14.35 108.76-9.95 106.81-5.55 103.56-2.48 100.31 0.6 96.96 0.6L96.96 0.6Q94.86 0.6 93.73-0.7 92.61-2 92.61-4.13 92.61-6.25 92.93-9.85 93.26-13.45 93.26-17L93.26-17Q93.26-17.8 92.68-18.9 92.11-20 91.51-20.65L91.51-20.65 91.66-21.25Q94.36-22.15 96.53-22.15ZM117.08-8.65L117.08-8.65Q117.08-14.9 120.85-18.53 124.63-22.15 129.43-22.15L129.43-22.15Q132.38-22.15 134.28-20.7 136.18-19.25 136.18-16.82 136.18-14.4 134.95-12.75 133.73-11.1 131.98-10.2L131.98-10.2Q128.43-8.45 125.48-8L125.48-8 124.28-7.85Q124.63-3.15 128.13-3.15L128.13-3.15Q129.33-3.15 130.68-3.75 132.03-4.35 132.78-4.95L132.78-4.95 133.53-5.55 134.73-3.95Q134.33-3.4 133.13-2.5 131.93-1.6 130.88-1L130.88-1Q127.98 0.6 124.53 0.6 121.08 0.6 119.08-1.85 117.08-4.3 117.08-8.65ZM124.23-10.3Q126.78-10.75 128.28-12.45 129.78-14.15 129.78-16.85 129.78-19.55 128.18-19.55L128.18-19.55Q126.28-19.55 125.25-16.32 124.23-13.1 124.23-10.3L124.23-10.3ZM144.15 0.15L144.15 0.15 143.8 0.15Q143.7-0.25 143.7-1.68 143.7-3.1 145.05-9.35 146.4-15.6 146.4-16.5L146.4-16.5Q146.4-18.05 145-19.9L145-19.9 144.55-20.5 144.6-21.15Q147.3-21.9 153.25-21.9L153.25-21.9Q153.85-20.6 153.85-18.25L153.85-18.25Q154.4-19.15 156.15-20.65 157.9-22.15 159.75-22.15L159.75-22.15Q162.45-22.15 162.45-17.45L162.45-17.45Q162.2-17.15 161.77-16.68 161.35-16.2 160.07-15.35 158.8-14.5 157.6-14.3L157.6-14.3Q157.55-14.3 156.75-15.65 155.95-17 155.55-17L155.55-17Q154.3-16.55 153.35-15.5L153.35-15.5Q151.05-5.15 151.05-2.1L151.05-2.1Q151.05-1 151.1-0.55L151.1-0.55Q149.35 0.15 144.15 0.15ZM183.47-6.55L183.47-6.55Q183.47-3.4 180.69-1.4 177.92 0.6 174.37 0.6 170.82 0.6 168.74-0.9 166.67-2.4 166.67-3.55L166.67-3.55Q166.67-4.25 168.42-5.83 170.17-7.4 171.37-7.75L171.37-7.75Q173.87-5.9 175.47-1.9L175.47-1.9Q177.32-2.05 177.32-3.65L177.32-3.65Q177.32-5.95 173.27-10.18 169.22-14.4 169.22-16.9 169.22-19.4 171.47-20.78 173.72-22.15 176.89-22.15 180.07-22.15 181.67-21.03 183.27-19.9 183.27-17.98 183.27-16.05 180.22-12.65L180.22-12.65Q180.57-12.3 181.12-11.73 181.67-11.15 182.57-9.55 183.47-7.95 183.47-6.55ZM178.67-14.4Q180.77-16.2 180.77-17.95 180.77-19.7 178.37-19.7L178.37-19.7Q177.22-19.7 176.47-19.23 175.72-18.75 175.72-18.15L175.72-18.15Q175.72-17.05 177.92-15.05L177.92-15.05 178.67-14.4ZM202.04-19.05Q202.04-16.95 200.69-11.83 199.34-6.7 199.34-5.13 199.34-3.55 199.79-3.55L199.79-3.55Q200.09-3.55 202.09-4.5L202.09-4.5 202.69-4.8 203.54-3.05Q203.09-2.65 202.34-2.05 201.59-1.45 199.54-0.43 197.49 0.6 195.74 0.6 193.99 0.6 192.99-0.48 191.99-1.55 191.99-3.38 191.99-5.2 193.24-9.88 194.49-14.55 194.49-15.95L194.49-15.95Q194.49-18.05 193.19-19.9L193.19-19.9 192.74-20.5 192.79-21.15Q195.44-21.9 201.39-21.9L201.39-21.9Q202.04-21.15 202.04-19.05ZM196.34-27.38Q195.34-28.35 195.34-30 195.34-31.65 196.71-32.9 198.09-34.15 199.89-34.15 201.69-34.15 202.69-33.15 203.69-32.15 203.69-30.53 203.69-28.9 202.26-27.65 200.84-26.4 199.09-26.4 197.34-26.4 196.34-27.38ZM222.01-21.55L226.86-21.55Q226.76-20.3 226.01-18.65L226.01-18.65Q224.11-18.85 222.41-18.85L222.41-18.85 221.51-18.85Q219.21-7.7 219.21-4.95L219.21-4.95Q219.21-3.5 219.83-3.5 220.46-3.5 223.16-4.75L223.16-4.75 224.06-3.1Q219.61 0.6 215.81 0.6L215.81 0.6Q214.06 0.6 212.93-0.5 211.81-1.6 211.81-3.43 211.81-5.25 212.23-7.55 212.66-9.85 213.41-13.18 214.16-16.5 214.51-18.55L214.51-18.55Q212.66-18.4 211.76-18.25L211.76-18.25Q211.66-18.85 211.66-19.88 211.66-20.9 211.81-21.55L211.81-21.55 214.96-21.55Q215.36-24.25 215.36-26.65L215.36-26.65 215.31-28.2 215.31-28.35Q219.21-29.7 222.66-29.7L222.66-29.7Q222.86-28.7 222.86-27.2 222.86-25.7 222.01-21.55L222.01-21.55ZM238.7 5.4Q237.03 6.4 237.03 7.35 237.03 8.3 238.1 8.3 239.18 8.3 240.53 7.28 241.88 6.25 242.78 3.95L242.78 3.95Q240.38 4.4 238.7 5.4ZM236.28 0.2L236.28 0.2Q232.08 0.2 232.08-4.4L232.08-4.4Q232.08-5.5 233.08-10.75 234.08-16 234.08-19.5L234.08-19.5Q234.08-20.25 233.88-20.9L233.88-20.9Q236.58-21.95 241.28-21.95L241.28-21.95Q241.53-21.25 241.53-19.55 241.53-17.85 240.43-12.5 239.33-7.15 239.33-5.6 239.33-4.05 240.63-4.05L240.63-4.05Q242.18-4.05 244.38-5.6L244.38-5.6Q244.63-8.55 246.38-21.15L246.38-21.15Q248.13-21.85 252.68-21.85L252.68-21.85 253.63-21.85Q252.68-18.1 251.78-11.05 250.88-4 250.33-1.25L250.33-1.25Q249.28 4.25 246.45 7.73 243.63 11.2 239.08 11.2L239.08 11.2Q237.28 11.2 235.8 10.25 234.33 9.3 234.33 7.8L234.33 7.8Q234.33 5.8 236.78 4.15 239.23 2.5 243.38 1.6L243.38 1.6Q243.83-0.6 244.08-2.65L244.08-2.65Q240.03 0.2 236.28 0.2ZM291.57 0.6L291.57 0.6Q288.87 0.6 284.72-0.4L284.72-0.4Q282.12 0.3 279.87 0.3 277.62 0.3 277.27 0.15L277.27 0.15Q277.62-2.85 280.24-14.63 282.87-26.4 282.87-29.4L282.87-29.4Q282.87-30 282.22-31 281.57-32 280.92-32.7L280.92-32.7 280.27-33.4 280.42-34.15Q286.97-35.5 294.52-35.5L294.52-35.5Q298.67-35.5 301.34-33.52 304.02-31.55 304.02-28L304.02-28Q304.02-21.15 295.67-18.5L295.67-18.5Q299.02-18.1 301.29-15.98 303.57-13.85 303.57-10L303.57-10Q303.57-5.3 300.17-2.35 296.77 0.6 291.57 0.6ZM290.67-17.15L290.67-17.15Q289.27-17.15 288.17-16.9L288.17-16.9Q286.02-7.4 285.42-3.65L285.42-3.65Q286.67-2.8 289.34-2.8 292.02-2.8 293.92-4.93 295.82-7.05 295.82-11.05L295.82-11.05Q295.82-17.15 290.67-17.15ZM293.47-32.4L293.47-32.4Q291.57-32.4 291.22-32.05L291.22-32.05Q290.52-27.55 288.92-20.25L288.92-20.25Q290.92-20.25 291.72-20.5 292.52-20.75 293.14-21.15 293.77-21.55 294.57-22.4L294.57-22.4Q296.32-24.25 296.32-28.33 296.32-32.4 293.47-32.4ZM315.91 0.6Q314.19 0.6 313.06-0.55 311.94-1.7 311.94-3.78 311.94-5.85 314.41-17.03 316.89-28.2 316.89-33.15L316.89-33.15 316.59-35.35Q320.49-36.7 323.89-36.7L323.89-36.7Q324.39-36 324.39-34.25L324.39-34.25Q324.39-30.25 321.86-18.78 319.34-7.3 319.34-5.43 319.34-3.55 319.79-3.55L319.79-3.55 323.29-4.8 324.19-3.05Q322.49-1.7 320.06-0.55 317.64 0.6 315.91 0.6ZM338.26 0.6L338.26 0.6Q334.81 0.6 332.86-1.83 330.91-4.25 330.91-8.6L330.91-8.6Q330.91-14.15 333.88-18.15 336.86-22.15 342.11-22.15L342.11-22.15 343.91-22.05Q344.76-22.5 345.81-22.5L345.81-22.5Q349.76-22.5 349.76-15.05L349.76-15.05Q351.81-15.15 353.91-15.6L353.91-15.6 354.71-15.8 355.01-13.85Q353.36-13.15 350.56-12.6L350.56-12.6 349.56-12.4Q348.61-7.15 345.71-3.28 342.81 0.6 338.26 0.6ZM340.96-3.7L340.96-3.7Q343.06-3.7 344.73-6.4 346.41-9.1 347.06-12.1L347.06-12.1Q341.71-12.1 341.71-16.1L341.71-16.1Q341.71-17.7 342.36-19.1L342.36-19.1 342.61-19.6Q342.41-19.7 342.11-19.7 341.81-19.7 341.66-19.6L341.66-19.6Q340.41-18.8 339.31-15.85 338.21-12.9 338.21-9.1L338.21-9.1Q338.21-3.7 340.96-3.7ZM363.95 5.4Q362.28 6.4 362.28 7.35 362.28 8.3 363.35 8.3 364.43 8.3 365.78 7.28 367.13 6.25 368.03 3.95L368.03 3.95Q365.63 4.4 363.95 5.4ZM377.73-21.85L378.78-21.8Q378.98-21.6 378.98-20.93 378.98-20.25 378.88-19.48 378.78-18.7 378.53-16 378.28-13.3 378.03-11.3L378.03-11.3Q375.48 11.2 364.33 11.2L364.33 11.2Q362.53 11.2 361.05 10.25 359.58 9.3 359.58 7.8L359.58 7.8Q359.58 5.8 362.03 4.15 364.48 2.5 368.63 1.6L368.63 1.6Q368.63 1.55 368.93 0.2 369.23-1.15 369.33-2L369.33-2Q366.33 0.2 363.7 0.2 361.08 0.2 359.4-1.85 357.73-3.9 357.73-8.4L357.73-8.4Q357.73-14.3 360.38-18.23 363.03-22.15 367.38-22.15L367.38-22.15Q369.83-22.15 372.23-20.95L372.23-20.95Q374.78-21.85 377.73-21.85L377.73-21.85ZM369.63-19.2L369.63-19.2Q367.48-19.2 366.23-15.73 364.98-12.25 364.98-8.03 364.98-3.8 366.88-3.8L366.88-3.8Q368.13-3.8 369.83-4.75L369.83-4.75Q371.23-13.15 371.83-18.6L371.83-18.6Q370.43-19.2 369.63-19.2Z" opacity="1" transform="matrix(1,0,0,1,0,0)" fill="#fbeaab" class="undefined-text-1" data-fill-palette-color="secondary" id="SvgjsPath1125" stroke-width="5" stroke="black" stroke-linejoin="round"></path></svg></g></svg></g></svg></g></svg></g><g></g></svg></g></svg></g></svg></g></mask></defs></svg><rect width="395.52" height="247.2" fill="none" stroke="none" visibility="hidden"></rect></g></svg></g></svg>