<?xml version="1.0" ?><svg viewBox="0 0 64 64" xmlns="http://www.w3.org/2000/svg"><title/><g id="Delete"><path d="M53,18H11a1,1,0,0,0-1,1V61a1,1,0,0,0,1,1H53a1,1,0,0,0,1-1V19A1,1,0,0,0,53,18ZM25,52a1,1,0,0,1-2,0V28a1,1,0,0,1,2,0Zm16,0a1,1,0,0,1-2,0V28a1,1,0,0,1,2,0Z" style="fill:#ffacb7"/><path d="M53,18H32V62H53a1,1,0,0,0,1-1V19A1,1,0,0,0,53,18ZM41,52a1,1,0,0,1-2,0V28a1,1,0,0,1,2,0Z" style="opacity:0.1"/><path d="M58,10H43V3a1,1,0,0,0-1-1H22a1,1,0,0,0-1,1v7H6a1,1,0,0,0-1,1v8a1,1,0,0,0,1,1H58a1,1,0,0,0,1-1V11A1,1,0,0,0,58,10ZM23,4H41v6H23Z" style="fill:#ffe0ac"/><path d="M58,10H43V3a1,1,0,0,0-1-1H22a1,1,0,0,0-1,1v7H6a1,1,0,0,0-1,1v8a1,1,0,0,0,1,1h4V61a1,1,0,0,0,1,1H53a1,1,0,0,0,1-1V20h4a1,1,0,0,0,1-1V11A1,1,0,0,0,58,10ZM23,4H41v6H23ZM52,60H12V20H52Zm5-42H7V12H57Z" style="fill:#7296d6"/><path d="M24,53a1,1,0,0,0,1-1V28a1,1,0,0,0-2,0V52A1,1,0,0,0,24,53Z" style="fill:#7296d6"/><path d="M40,53a1,1,0,0,0,1-1V28a1,1,0,0,0-2,0V52A1,1,0,0,0,40,53Z" style="fill:#7296d6"/></g></svg>